<svg xmlns="http://www.w3.org/2000/svg" xmlns:xlink="http://www.w3.org/1999/xlink" version="1.1"
    x="0px" y="0px" viewBox="0 0 1024 1280" fill="currentColor"
    xml:space="preserve"><g><g><g>
<path d="M887.1,565.5c-16.8,1.8-33.6,3.5-50.4,5.3c-19.8,2.1-39.6,4.2-59.4,6.2c-32.2,3.4-64.5,6.8-96.7,10.2     c-30.9,3.2-61.8,6.5-92.7,9.7c-15.7,1.7-31.5,3.1-47.3,5c-0.2,0-0.5,0.1-0.7,0.1c20,20,40,40,60,60c6.3-56.4,6.9-113.8,4.4-170.4     c-2-45.6-6.8-91.1-13.7-136.2c-6.7-44.1-16.1-87.9-29.4-130.6c-16.4-52.9-38.3-104.9-67.2-152.2c-27.4,27.4-54.7,54.7-82.1,82.1     c9.7,4.3,19.1,9.3,28.4,14.3c24.9,13.4,49.1,28.1,72.6,43.9c18.1,12.1,35.8,24.9,53.1,38.2c-4-3.1-8.1-6.3-12.1-9.4     c45.5,35.1,87.9,74.3,126,117.4c12,13.6,23.5,27.5,34.6,41.8c-3.1-4-6.3-8.1-9.4-12.1c29.7,38.5,55.9,79.7,77.6,123.3     c6.6,13.2,12.7,26.5,18.4,40.1c-2-4.8-4-9.6-6-14.3c14.1,33.6,25.6,68.3,34.2,103.7c3.5,14.4,14.9,28.5,27.6,35.9     c12.9,7.5,31.8,10.7,46.2,6c14.5-4.7,28.5-13.7,35.9-27.6c7.7-14.5,10-30.1,6-46.2c-17.4-71.4-46.2-140.7-83.6-204     c-33.6-56.7-74.7-109.6-120.3-157.1c-39.4-41.1-82.9-77.8-128.6-111.8c-30.4-22.6-62.1-43.4-94.9-62.2     c-14.5-8.2-29.2-16.3-44.3-23.2c-0.2-0.1-0.4-0.2-0.6-0.3c-4.8-2-9.6-4-14.3-6c-8-2.5-16-2.9-23.9-1.1c-5.4,0-10.5,1.4-15.1,4.1     c-7.4,2.4-13.9,6.6-19.3,12.4c-7,7.7-12.2,16.6-15.4,26.5c-4.6,14.1-1.6,33.7,6,46.2c14.6,23.8,27.2,48.8,38.1,74.5     c-2-4.8-4-9.6-6-14.3c22.2,52.6,37.3,107.9,47.5,164c2.8,15.6,5.3,31.2,7.4,46.9c-0.7-5.3-1.4-10.6-2.1-16     c5.9,44.1,9.1,88.5,10.1,132.9c0.7,34.3,0.1,68.7-2.1,102.9c-0.8,12.7-1.8,25.3-3.3,38c-0.3,8.3,1.4,16,5.2,23.1     c2.4,7.4,6.6,13.9,12.4,19.3c11,10.1,26.9,19.2,42.4,17.6c13-1.4,26-2.7,39-4.1c29.8-3.1,59.6-6.3,89.3-9.4     c32.8-3.4,65.6-6.9,98.4-10.3c22.1-2.3,44.1-4.6,66.2-7c16.7-1.8,33.4-3.5,50.1-5.3c1.4-0.1,2.8-0.3,4.2-0.4     c8.3,0.3,16-1.4,23.1-5.2c7.4-2.4,13.9-6.6,19.3-12.4c10.4-10.4,18.2-27.5,17.6-42.4c-0.7-15.5-5.8-31.6-17.6-42.4     C918.5,572.9,902.6,563.9,887.1,565.5z"/></g></g><g><g>
<path d="M888.3,603.3c-12.7,30.2-25.4,60.3-38,90.5c-20.1,47.9-40.3,95.8-60.4,143.6c-4.6,11-9.2,22-13.9,33     c19.3-14.7,38.6-29.4,57.9-44c-12.1,1.2-24.4,2.6-36.3,5.5c-9.3,2.3-18.1,5.8-26.9,9.5c-8.9,3.8-17.7,7.5-26,12.6     c-3,1.8-5.9,3.8-8.8,5.8c-5,3.6-10.3,7.2-14.7,11.3c-11.4,10.5-17.6,27.2-17.6,42.4c9.9-17.3,19.8-34.5,29.7-51.8     c-9.1,6.8-19,12.5-29.5,17c4.8-2,9.6-4,14.3-6c-11.2,4.6-22.9,7.8-34.9,9.5c5.3-0.7,10.6-1.4,16-2.1c-12,1.5-24,1.5-35.9,0     c5.3,0.7,10.6,1.4,16,2.1c-12-1.7-23.7-4.8-34.9-9.5c4.8,2,9.6,4,14.3,6c-10.5-4.5-20.3-10.2-29.5-17     c9.9,17.3,19.8,34.5,29.7,51.8c0-15.9-6.4-31.2-17.6-42.4c-4-4-10.8-8.5-16.1-12.2c-3.5-2.5-7.1-4.7-10.8-6.9     c-11.3-6.5-23.5-11.5-35.7-15.9c-7.8-2.8-15.8-4.9-24-6.2c-12.6-2.1-25.4-4-38.2-4c-12.8,0-25.6,1.9-38.2,4     c-8.2,1.3-16.2,3.4-24,6.2c-12.2,4.4-24.4,9.5-35.7,15.9c-3.7,2.1-7.3,4.4-10.8,6.9c-5.3,3.7-12.1,8.3-16.1,12.2     c-11.2,11.2-17.6,26.6-17.6,42.4c9.9-17.3,19.8-34.5,29.7-51.8c-9.1,6.8-19,12.5-29.5,17c4.8-2,9.6-4,14.3-6     c-11.2,4.6-22.9,7.8-34.9,9.5c5.3-0.7,10.6-1.4,16-2.1c-12,1.5-24,1.5-35.9,0c5.3,0.7,10.6,1.4,16,2.1c-12-1.7-23.7-4.8-34.9-9.5     c4.8,2,9.6,4,14.3,6c-10.5-4.5-20.3-10.2-29.5-17c9.9,17.3,19.8,34.5,29.7,51.8c0-12.6-1.3-13.9-5.2-23.1     c-1.4-5.1-4-9.5-7.7-13.2c-4.2-6.5-9.8-11.7-16.8-15.5c-2-1.5-4-2.9-6-4.3c-4.2-2.9-8.6-5.5-13.1-7.8c-13.3-7-27.6-13-42.2-16.9     c-14.4-3.8-29.5-5.9-44.3-6.6c-15.2-0.8-30.4,1.4-45.4,3.8c22.6,9.2,45.2,18.4,67.8,27.6c-9.8-20-19.6-39.9-29.3-59.9     c-15.6-31.8-31.2-63.6-46.7-95.4c-3.6-7.3-7.1-14.6-10.7-21.9c-17.3,30.1-34.5,60.2-51.8,90.3c29.3-3.1,58.7-6.2,88-9.2     c21.4-2.3,42.9-4.5,64.3-6.8c40.2-4.2,80.5-8.5,120.7-12.7c20.9-2.2,41.7-4.4,62.6-6.6c27.9-2.9,55.8-5.9,83.7-8.8     c20.7-2.2,41.4-4.3,62.1-6.5c34.2-3.6,68.5-7.2,102.7-10.8c40.4-4.2,80.7-8.5,121.1-12.7c19.4-2,38.7-4.1,58.1-6.1     c29.6-3.1,59.2-6.2,88.8-9.3c5.4-0.6,10.8-1.1,16.2-1.7c8.3,0.3,16-1.4,23.1-5.2c7.4-2.4,13.9-6.6,19.3-12.4     c10.4-10.4,18.2-27.5,17.6-42.4c-0.7-15.5-5.8-31.6-17.6-42.4c-11-10.1-26.9-19.2-42.4-17.6c-28.5,3-57,6-85.5,9     c-18.3,1.9-36.5,3.8-54.8,5.8c-37.6,4-75.2,7.9-112.9,11.9c-38.3,4-76.5,8-114.8,12.1c-17.7,1.9-35.4,3.7-53.1,5.6     c-31.2,3.3-62.4,6.6-93.6,9.8c-19.3,2-38.5,4-57.8,6.1c-38.4,4-76.7,8.1-115.1,12.1c-26.7,2.8-53.4,5.6-80.1,8.4     c-29.6,3.1-59.2,6.2-88.7,9.3c-4,0.4-8,0.8-12,1.3c-10.8,0-20.9,2.8-30.3,8.2c-9,5.3-16.2,12.5-21.5,21.5     c-5.4,9.4-8.2,19.5-8.2,30.3c0,10.8,2.8,20.9,8.2,30.3c9.8,20,19.6,39.9,29.3,59.9c15.6,31.8,31.2,63.6,46.7,95.4     c3.6,7.3,7.1,14.6,10.7,21.9c3.1,4,6.3,8.1,9.4,12.1c5.4,5.9,11.9,10,19.3,12.4c4.7,2.7,9.7,4.1,15.1,4.1c8,1.8,16,1.4,23.9-1.1     c1.6-0.3,3.2-0.5,4.9-0.7c-5.3,0.7-10.6,1.4-16,2.1c12-1.5,24-1.4,36,0.1c-5.3-0.7-10.6-1.4-16-2.1c12.1,1.7,23.7,4.9,35,9.6     c-4.8-2-9.6-4-14.3-6c10.3,4.5,20,10.1,29,16.8c-9.9-17.3-19.8-34.5-29.7-51.8c0,10.1,3.1,21.6,8.2,30.3     c5.6,9.5,14.1,16.1,22.8,22.5c2.7,2,5.5,3.9,8.4,5.7c5.7,3.6,11.6,6.7,17.7,9.4c16,7.1,31.8,13.5,49.1,16.1     c17.7,2.6,34.8,4.7,52.6,2.6c17.6-2.1,34.5-4.6,51-11.2c11.2-4.5,22.5-9.1,32.9-15.3c3.1-1.9,6.2-3.9,9.1-6     c5.2-3.7,10.9-7.3,15.3-11.7c10.8-10.8,17.6-27.1,17.6-42.4c-9.9,17.3-19.8,34.5-29.7,51.8c9-6.7,18.6-12.3,28.8-16.7     c-4.8,2-9.6,4-14.3,6c11.5-4.8,23.5-8.1,35.8-9.8c-5.3,0.7-10.6,1.4-16,2.1c11.8-1.5,23.6-1.5,35.3,0c-5.3-0.7-10.6-1.4-16-2.1     c12.4,1.7,24.3,5,35.8,9.8c-4.8-2-9.6-4-14.3-6c10.3,4.5,19.9,10.1,28.8,16.7c-9.9-17.3-19.8-34.5-29.7-51.8     c0,10.1,3.1,21.6,8.2,30.3c5.6,9.5,14.1,16.1,22.8,22.5c2.7,2,5.5,3.9,8.4,5.7c5.7,3.6,11.6,6.7,17.7,9.4     c16,7.1,31.8,13.5,49.1,16.1c17.7,2.6,34.8,4.7,52.6,2.6c17.6-2.1,34.5-4.6,51-11.2c11.2-4.5,22.5-9.1,32.9-15.3     c3.1-1.9,6.2-3.9,9.1-6c5.2-3.7,10.9-7.3,15.3-11.7c10.8-10.8,17.6-27.1,17.6-42.4c-9.9,17.3-19.8,34.5-29.7,51.8     c9.4-7,19.4-12.8,30.2-17.3c-4.8,2-9.6,4-14.3,6c10.7-4.4,21.8-7.4,33.3-9c-5.3,0.7-10.6,1.4-16,2.1c2.3-0.3,4.5-0.6,6.8-0.8     c5.3-0.7,10.6-1.4,16-2.1c7.8-1.9,14.6-5.4,20.4-10.7c4.5-2.7,8.1-6.3,10.8-10.8c5.3-5.8,8.9-12.6,10.7-20.4     c12.7-30.2,25.4-60.3,38-90.5c20.1-47.9,40.3-95.8,60.4-143.6c4.6-11,9.2-22,13.9-33c2.5-8,2.9-16,1.1-23.9     c-0.4-8-2.7-15.4-7.1-22.3c-7.3-12.4-21.6-24.3-35.9-27.6c-15.4-3.5-32.6-2.7-46.2,6c-4,3.1-8.1,6.3-12.1,9.4     C896.3,584.3,891.1,593.2,888.3,603.3z"/></g></g><g><g>
<path d="M395.1,617.2c-26.8,2.8-53.6,5.6-80.3,8.4c-39.7,4.2-79.3,8.3-119,12.5c-9.8,1-19.7,2.1-29.5,3.1     c14.1,34.1,28.3,68.3,42.4,102.4c19.4-20.4,36.7-43,53.3-65.8c17.7-24.3,34.1-49.5,49.4-75.4c37.2-62.6,68.9-129.4,91.8-198.6     c13.3-40.1,21.9-80.8,26.8-122.8c-39.3,5.3-78.6,10.6-117.9,16c6,22.3,10.2,45.2,14,67.9c2.3,13.5,4.3,27.1,6.2,40.7     c-0.7-5.3-1.4-10.6-2.1-16c9.5,71.2,13.2,143.2,10.3,215c-1,24.2-2.8,48.3-5.4,72.4c-0.3,8.3,1.4,16,5.2,23.1     c2.4,7.4,6.6,13.9,12.4,19.3c10.4,10.4,27.5,18.2,42.4,17.6c15.5-0.7,31.6-5.8,42.4-17.6c3.1-4,6.3-8.1,9.4-12.1     c5.4-9.4,8.2-19.5,8.2-30.3c8.1-76,8.2-152.7,1.6-228.8c-4.6-53.1-11.9-106.3-23.1-158.4c-1.8-8.3-3.6-16.6-5.8-24.7     c-3.7-13.9-14.7-29-27.6-35.9c-4.8-2-9.6-4-14.3-6c-8-2.5-16-2.9-23.9-1.1c-5.4,0-10.5,1.4-15.1,4.1c-7.4,2.4-13.9,6.6-19.3,12.4     c-3.1,4-6.3,8.1-9.4,12.1c-5.4,9.4-8.2,19.5-8.2,30.3c-0.3,2.8-0.7,5.6-1.1,8.4c0.7-5.3,1.4-10.6,2.1-16     c-7.5,54.6-24.9,107.6-46.2,158.2c2-4.8,4-9.6,6-14.3c-26.3,62.3-59.1,122.1-97.2,178c-8.9,13.1-18.2,25.9-27.9,38.5     c3.1-4,6.3-8.1,9.4-12.1c-9.9,12.8-20.2,25.3-31.4,37c-6.9,7.2-12.8,16.8-15.4,26.5c-0.7,5.3-1.4,10.6-2.1,16     c-0.3,8.3,1.4,16,5.2,23.1c1.4,5.1,4,9.5,7.7,13.2c2.7,4.5,6.3,8.1,10.8,10.8c9.7,7.5,23.7,14.2,36.4,12.9     c24.8-2.6,49.7-5.2,74.5-7.8c41.5-4.4,83.1-8.7,124.6-13.1c9.9-1,19.8-2.1,29.7-3.1c8.3,0.3,16-1.4,23.1-5.2     c7.4-2.4,13.9-6.6,19.3-12.4c10.4-10.4,18.2-27.5,17.6-42.4c-0.7-15.5-5.8-31.6-17.6-42.4C426.5,624.6,410.7,615.6,395.1,617.2z"/></g></g><g><g>
<path d="M135.1,965.3c8.9-6.7,18.5-12.3,28.7-16.7c-4.8,2-9.6,4-14.3,6c10-4.2,20.4-7.3,31.2-9.1     c14-2.4,29-15.8,35.9-27.6c7.5-12.9,10.7-31.8,6-46.2c-4.7-14.5-13.7-28.5-27.6-35.9c-4.8-2-9.6-4-14.3-6     c-10.6-2.9-21.3-2.9-31.9,0c-13.5,2.3-25.8,6.8-38.3,12.1c-12.8,5.4-24.8,11.4-35.9,19.7c-7,3.8-12.6,8.9-16.8,15.5     c-5.3,5.8-8.9,12.6-10.7,20.4c-4,14.4-2.2,33.5,6,46.2c8.3,12.8,20.6,24.1,35.9,27.6C103.5,974.7,122.4,974.8,135.1,965.3     L135.1,965.3z"/></g></g><g><g>
<path d="M833.8,946.4c9.9-0.8,19.8-0.6,29.7,0.6c-5.3-0.7-10.6-1.4-16-2.1c12.2,1.6,23.9,4.8,35.3,9.5     c-4.8-2-9.6-4-14.3-6c10.5,4.5,20.4,10.2,29.5,17c6.9,4.4,14.3,6.8,22.3,7.1c8,1.8,16,1.4,23.9-1.1c13.9-3.8,29-14.6,35.9-27.6     c7.4-13.9,11-30.8,6-46.2c-2-4.8-4-9.6-6-14.3c-5.3-9-12.5-16.2-21.5-21.5c-7.3-5.5-15.1-10.3-23.4-14.3     c-11.6-5.6-23.8-10.8-36.3-14.3c-20.8-5.9-43.5-8.5-65.1-6.7c-8.3-0.3-16,1.4-23.1,5.2c-7.4,2.4-13.9,6.6-19.3,12.4     c-10.4,10.4-18.2,27.5-17.6,42.4c0.7,15.5,5.8,31.6,17.6,42.4C802.6,939.1,818.1,947.7,833.8,946.4L833.8,946.4z"/></g></g>
</g>
</svg>