<svg xmlns="http://www.w3.org/2000/svg" xmlns:xlink="http://www.w3.org/1999/xlink" version="1.1" x="0px" y="0px" viewBox="0 0 32 40" xml:space="preserve" fill="currentColor">
    <g>
    <path d="M10.7070313,19.2929688c-0.390625-0.390625-1.0234375-0.390625-1.4140625,0s-0.390625,1.0234375,0,1.4140625   l0.2463989,0.2463989C8.1045532,20.7297974,7,19.496582,7,18c0-0.5527344-0.4477539-1-1-1s-1,0.4472656-1,1   c0,2.6280518,2.0452271,4.7658081,4.6239624,4.9619751l-0.3309937,0.3309937c-0.390625,0.390625-0.390625,1.0234375,0,1.4140625   C9.4882813,24.9023438,9.7441406,25,10,25s0.5117188-0.0976563,0.7070313-0.2929688l2-2   c0.390625-0.390625,0.390625-1.0234375,0-1.4140625L10.7070313,19.2929688z"/>
    <path d="M21.2929688,12.7070313C21.4882813,12.9023438,21.7441406,13,22,13s0.5117188-0.0976563,0.7070313-0.2929688   c0.390625-0.390625,0.390625-1.0234375,0-1.4140625l-0.2463989-0.2463989C23.8954468,11.2702026,25,12.503418,25,14   c0,0.5527344,0.4477539,1,1,1s1-0.4472656,1-1c0-2.6280518-2.0452271-4.7658081-4.6239624-4.9619751l0.3309937-0.3309937   c0.390625-0.390625,0.390625-1.0234375,0-1.4140625s-1.0234375-0.390625-1.4140625,0l-2,2   c-0.390625,0.390625-0.390625,1.0234375,0,1.4140625L21.2929688,12.7070313z"/>
    <path d="M16.3081055,10.4472656C16.3237305,10.3037109,16.3334961,10.1542969,16.3334961,10   s-0.0097656-0.3037109-0.0253906-0.4472656l1.418457-1.4990234c0.3110352-0.3291016,0.3623047-0.8261719,0.125-1.2119141   L16.784668,5.109375c-0.2182617-0.3535156-0.6293945-0.5322266-1.0400391-0.4580078l-2.175293,0.4169922   c-0.2836914-0.1855469-0.5771484-0.3476563-0.8779297-0.484375l-0.6821289-1.9189453   C11.8671875,2.2666016,11.4902344,2,11.0668945,2H8.9331055c-0.4233398,0-0.800293,0.2666016-0.9423828,0.6650391   L7.3085938,4.5839844c-0.3007813,0.1367188-0.5942383,0.2988281-0.8779297,0.484375l-2.175293-0.4169922   C3.8476563,4.5761719,3.4331055,4.7558594,3.215332,5.109375L2.1484375,6.8417969   c-0.2373047,0.3857422-0.1860352,0.8828125,0.125,1.2119141l1.418457,1.4990234   C3.6762695,9.6962891,3.6665039,9.8457031,3.6665039,10s0.0097656,0.3037109,0.0253906,0.4472656l-1.418457,1.4990234   c-0.3110352,0.3291016-0.3623047,0.8261719-0.125,1.2119141L3.215332,14.890625   c0.2182617,0.3535156,0.6328125,0.5341797,1.0400391,0.4580078l2.175293-0.4169922   c0.2836914,0.1855469,0.5771484,0.3476563,0.8779297,0.484375l0.6821289,1.9189453C8.1328125,17.7333984,8.5097656,18,8.9331055,18   h2.1337891c0.4233398,0,0.800293-0.2666016,0.9423828-0.6650391l0.6821289-1.9189453   c0.3007813-0.1367188,0.5942383-0.2988281,0.8779297-0.484375l2.175293,0.4169922   c0.409668,0.0751953,0.8222656-0.1044922,1.0400391-0.4580078l1.0668945-1.7324219   c0.2373047-0.3857422,0.1860352-0.8828125-0.125-1.2119141L16.3081055,10.4472656z M10,13c-1.6568604,0-3-1.3431396-3-3   s1.3431396-3,3-3s3,1.3431396,3,3S11.6568604,13,10,13z"/>
    <path d="M28.3081055,22.4472656C28.3237305,22.3037109,28.3334961,22.1542969,28.3334961,22   s-0.0097656-0.3037109-0.0253906-0.4472656l1.418457-1.4990234c0.3110352-0.3291016,0.3623047-0.8261719,0.125-1.2119141   L28.784668,17.109375c-0.2182617-0.3535156-0.6293945-0.5322266-1.0400391-0.4580078l-2.175293,0.4169922   c-0.2836914-0.1855469-0.5771484-0.3476563-0.8779297-0.484375l-0.6821289-1.9189453   C23.8671875,14.2666016,23.4902344,14,23.0668945,14h-2.1337891c-0.4233398,0-0.800293,0.2666016-0.9423828,0.6650391   l-0.6821289,1.9189453c-0.3007813,0.1367188-0.5942383,0.2988281-0.8779297,0.484375l-2.175293-0.4169922   c-0.4082031-0.0751953-0.8222656,0.1044922-1.0400391,0.4580078l-1.0668945,1.7324219   c-0.2373047,0.3857422-0.1860352,0.8828125,0.125,1.2119141l1.418457,1.4990234   C15.6762695,21.6962891,15.6665039,21.8457031,15.6665039,22s0.0097656,0.3037109,0.0253906,0.4472656l-1.418457,1.4990234   c-0.3110352,0.3291016-0.3623047,0.8261719-0.125,1.2119141l1.0668945,1.7324219   c0.2182617,0.3535156,0.6328125,0.5341797,1.0400391,0.4580078l2.175293-0.4169922   c0.2836914,0.1855469,0.5771484,0.3476563,0.8779297,0.484375l0.6821289,1.9189453   C20.1328125,29.7333984,20.5097656,30,20.9331055,30h2.1337891c0.4233398,0,0.800293-0.2666016,0.9423828-0.6650391   l0.6821289-1.9189453c0.3007813-0.1367188,0.5942383-0.2988281,0.8779297-0.484375l2.175293,0.4169922   c0.409668,0.0751953,0.8222656-0.1044922,1.0400391-0.4580078l1.0668945-1.7324219   c0.2373047-0.3857422,0.1860352-0.8828125-0.125-1.2119141L28.3081055,22.4472656z M22,25c-1.6568604,0-3-1.3431396-3-3   s1.3431396-3,3-3s3,1.3431396,3,3S23.6568604,25,22,25z"/></g>
</svg>