<svg xmlns="http://www.w3.org/2000/svg" xmlns:xlink="http://www.w3.org/1999/xlink" version="1.1" x="0px" y="0px" viewBox="0 0 90 112.5" xml:space="preserve">
    <path stroke="currentColor" d="M86.025,64.122h-8.343v-44.92c0-7.361-5.99-13.352-13.351-13.352H14.821c-7.36,0-13.351,5.99-13.351,13.352v6.259  c0,1.382,1.119,2.503,2.504,2.503h19.189v42.834c0,7.28,5.859,13.219,13.108,13.348c0.034,0.002,0.068,0.004,0.105,0.004h38.8  c7.361,0,13.352-5.991,13.352-13.352v-4.172C88.529,65.242,87.407,64.122,86.025,64.122z M6.477,19.202  c0-4.601,3.744-8.346,8.345-8.346c4.602,0,8.343,3.745,8.343,8.346v3.754H6.477V19.202z M44.861,66.626v4.172  c0,4.6-3.744,8.344-8.346,8.344c-4.601,0-8.345-3.744-8.345-8.344V25.461v-1.357v-4.901c0-3.157-1.104-6.057-2.944-8.346h39.105  c4.6,0,8.344,3.745,8.344,8.346v44.92H47.362C45.98,64.122,44.861,65.242,44.861,66.626z M83.522,70.798  c0,4.6-3.744,8.344-8.345,8.344H46.932c1.835-2.286,2.936-5.189,2.936-8.344v-1.67h33.655V70.798z"/>
    <rect fill="currentColor" x="34.64" y="22.878" width="31.915" height="4.798"/>
    <rect fill="currentColor" x="34.64" y="30.321" width="31.915" height="4.798"/>
    <rect fill="currentColor" x="34.64" y="37.765" width="31.915" height="4.798"/>
    <rect fill="currentColor" x="34.64" y="45.208" width="31.915" height="4.799"/>
    </svg>