<svg xmlns:xlink="http://www.w3.org/1999/xlink" xmlns="http://www.w3.org/2000/svg" stroke-width="0.501" stroke-linejoin="bevel" fill-rule="evenodd" 
version="1.1" overflow="visible" viewBox="12 12 48 48">
    <g fill="none" stroke="currentColor">
    <g>
    <g><path d="M 20.078,21.528 L 20.078,53.473 C 20.078,57.199 23.102,60.224 26.83,60.224 L 54.47,60.224 C 54.72,60.224 54.923,60.021 54.923,59.771 L 54.923,15.229 C 54.923,14.978 54.72,14.776 54.47,14.776 L 26.83,14.776 C 23.102,14.776 20.078,17.8 20.078,21.528 Z M 51.882,18.066 L 51.882,23.751 L 27.106,23.751 C 25.097,23.751 23.679,22.367 23.679,20.908 C 23.679,19.448 25.097,18.066 27.106,18.066 L 51.882,18.066 Z M 26.83,26.728 L 51.882,26.728 L 51.882,57.16 L 27.61,57.16 C 25.183,57.16 23.215,55.189 23.215,52.763 L 23.212,25.687 L 24.716,26.407 C 25.384,26.615 26.094,26.728 26.83,26.728 Z M 27.806,46.194 L 27.806,46.805 C 27.806,47.645 28.488,48.328 29.33,48.328 L 46.44,48.328 C 47.28,48.328 47.963,47.645 47.963,46.805 L 47.963,46.194 C 47.963,45.352 47.28,44.67 46.44,44.67 L 29.33,44.67 C 28.488,44.67 27.806,45.352 27.806,46.194 Z M 27.806,51.786 L 27.806,52.399 C 27.806,53.239 28.488,53.922 29.33,53.922 L 46.44,53.922 C 47.28,53.922 47.963,53.239 47.963,52.399 L 47.963,51.786 C 47.963,50.945 47.28,50.263 46.44,50.263 L 29.33,50.263 C 28.488,50.263 27.806,50.945 27.806,51.786 Z" fill="currentColor" stroke="none" stroke-width="0.928" stroke-linejoin="round" marker-start="none" marker-end="none" stroke-miterlimit="79.8403193612775"/></g>
</g></g></svg>